<svg width="132" height="86" viewBox="0 0 132 86" fill="none" xmlns="http://www.w3.org/2000/svg">
<g clip-path="url(#clip0_1_2599)">
<path d="M15.9806 34.2839V28.6496H20.9406V17.2515H24.0446L16.5246 21.4611V15.0496L22.9566 11.4553H27.8206V28.6496H32.4606V34.2839H15.9806ZM34.5921 34.2839V29.1677L41.0881 22.3677C41.8561 21.5474 42.3894 20.8782 42.6881 20.3601C43.0081 19.8204 43.1681 19.2807 43.1681 18.7411C43.1681 18.0719 42.9334 17.5753 42.4641 17.2515C42.0161 16.9061 41.3654 16.7334 40.5121 16.7334C39.7441 16.7334 38.9334 16.8846 38.0801 17.1868C37.2481 17.4674 36.3947 17.9207 35.5201 18.5468L33.4401 13.4953C34.4641 12.7398 35.6907 12.1461 37.1201 11.7144C38.5707 11.2826 40.0427 11.0668 41.5361 11.0668C44.2667 11.0668 46.3361 11.6604 47.7441 12.8477C49.1734 14.0134 49.8881 15.6972 49.8881 17.8992C49.8881 19.2807 49.5894 20.5976 48.9921 21.8496C48.3947 23.1017 47.3494 24.4401 45.8561 25.8649L41.1521 30.3982V28.6496H50.6881V34.2839H34.5921Z" fill="#3A3A3A"/>
<path d="M16.2543 50.8117V46.7196L16.6983 47.9581L12.9062 42.251H15.4623L17.6103 45.6874H17.1783L19.3263 42.251H21.7983L18.0303 47.9581L18.4743 46.7196V50.8117H16.2543ZM22.6632 50.8117V42.251H28.7352V43.9631H24.7872V45.6024H28.4472V47.3267H24.7872V49.0874H28.7352V50.8117H22.6632ZM28.7207 50.8117L32.6807 42.251H34.4807L38.4647 50.8117H36.2447L35.2247 48.456L36.0767 49.0753H31.1087L31.9487 48.456L30.9407 50.8117H28.7207ZM33.5687 44.5581L32.1647 47.946L31.8287 47.3753H35.3447L35.0447 47.946L33.6287 44.5581H33.5687ZM38.9874 50.8117V42.251H42.9834C43.9594 42.251 44.7114 42.4858 45.2394 42.9553C45.7754 43.4248 46.0434 44.0765 46.0434 44.9103C46.0434 45.4689 45.9234 45.9465 45.6834 46.3431C45.4434 46.7317 45.0954 47.0353 44.6394 47.2539C44.1834 47.4643 43.6394 47.5696 43.0074 47.5696L43.1154 47.266H43.7154C44.0674 47.266 44.3794 47.3631 44.6514 47.5574C44.9234 47.7517 45.1474 48.0229 45.3234 48.371L46.6074 50.8117H44.1834L42.8034 48.0796C42.7154 47.9015 42.5834 47.78 42.4074 47.7153C42.2394 47.6505 42.0474 47.6181 41.8314 47.6181H41.2074V50.8117H38.9874ZM41.2074 46.0274H42.5994C43.0314 46.0274 43.3594 45.9424 43.5834 45.7724C43.8074 45.5943 43.9194 45.3312 43.9194 44.9831C43.9194 44.6431 43.8074 44.3881 43.5834 44.2181C43.3594 44.0481 43.0314 43.9631 42.5994 43.9631H41.2074V46.0274ZM50.6752 50.9453C49.9952 50.9453 49.3472 50.8643 48.7312 50.7024C48.1232 50.5324 47.6112 50.3058 47.1952 50.0224L47.8192 48.286C48.0832 48.456 48.3712 48.6017 48.6832 48.7231C48.9952 48.8446 49.3192 48.9417 49.6552 49.0146C49.9992 49.0793 50.3472 49.1117 50.6992 49.1117C51.2272 49.1117 51.5912 49.0429 51.7912 48.9053C51.9992 48.7677 52.1032 48.5896 52.1032 48.371C52.1032 48.1767 52.0352 48.027 51.8992 47.9217C51.7632 47.8084 51.5072 47.7112 51.1312 47.6303L49.6672 47.3267C48.8912 47.1648 48.3112 46.8855 47.9272 46.4889C47.5432 46.0841 47.3512 45.5579 47.3512 44.9103C47.3512 44.3436 47.4992 43.8539 47.7952 43.441C48.0992 43.02 48.5232 42.6962 49.0672 42.4696C49.6112 42.2348 50.2472 42.1174 50.9752 42.1174C51.5752 42.1174 52.1392 42.2024 52.6672 42.3724C53.1952 42.5343 53.6272 42.761 53.9632 43.0524L53.3392 44.6796C53.0192 44.4448 52.6592 44.2667 52.2592 44.1453C51.8592 44.0158 51.4152 43.951 50.9272 43.951C50.4632 43.951 50.1112 44.0239 49.8712 44.1696C49.6392 44.3072 49.5232 44.5055 49.5232 44.7646C49.5232 44.9427 49.5912 45.0965 49.7272 45.226C49.8712 45.3474 50.1312 45.4486 50.5072 45.5296L51.9472 45.821C52.7232 45.9748 53.3032 46.25 53.6872 46.6467C54.0792 47.0434 54.2752 47.5615 54.2752 48.201C54.2752 48.7515 54.1232 49.2331 53.8192 49.646C53.5232 50.0589 53.1072 50.3786 52.5712 50.6053C52.0352 50.832 51.4032 50.9453 50.6752 50.9453Z" fill="#3A3A3A"/>
<path d="M130.37 1.77515H1V83.8642H130.37V1.77515Z" stroke="#0D0D0D" stroke-width="3"/>
<path d="M9.18208 75.4927L9.40208 74.3728H8.96875V73.7455H9.51542L9.78208 72.43H9.12208V71.7959H9.90875L10.1221 70.7367H10.7954L10.5821 71.7959H11.3221L11.5421 70.7367H12.2088L11.9954 71.7959H12.4221V72.43H11.8688L11.6021 73.7455H12.2754V74.3728H11.4821L11.2621 75.4927H10.5887L10.8088 74.3728H10.0754L9.86208 75.4927H9.18208ZM10.1954 73.7455H10.9288L11.1954 72.43H10.4554L10.1954 73.7455ZM13.3661 75.4927V74.6292H14.4328V71.6137H14.9195L13.4795 72.4637V71.4788L14.7328 70.7367H15.4728V74.6292H16.4728V75.4927H13.3661ZM19.0518 75.4927V70.7367H21.1851C21.714 70.7367 22.1228 70.8649 22.4118 71.1212C22.7006 71.3729 22.8451 71.7257 22.8451 72.1804C22.8451 72.4772 22.7784 72.7336 22.6451 72.9494C22.5162 73.1606 22.3295 73.3245 22.0851 73.4419C21.8451 73.5539 21.5562 73.6105 21.2184 73.6105L21.2984 73.4621H21.5717C21.7628 73.4621 21.9318 73.5134 22.0784 73.6173C22.2295 73.7205 22.3539 73.8709 22.4517 74.0693L23.1517 75.4927H22.0051L21.2784 73.9613C21.2251 73.8305 21.1406 73.7455 21.0251 73.705C20.9139 73.6598 20.7851 73.6375 20.6384 73.6375H20.0918V75.4927H19.0518ZM20.0918 72.882H21.0051C21.2762 72.882 21.4828 72.8253 21.6251 72.7133C21.7673 72.6006 21.8384 72.434 21.8384 72.2141C21.8384 71.9935 21.7673 71.8296 21.6251 71.7216C21.4828 71.609 21.2762 71.553 21.0051 71.553H20.0918V72.882ZM24.9729 75.5669C24.6796 75.5669 24.4218 75.4947 24.1995 75.351C23.9774 75.2066 23.804 75.0022 23.6796 74.7371C23.5551 74.4713 23.4929 74.1522 23.4929 73.7792C23.4929 73.4102 23.5551 73.0931 23.6796 72.828C23.804 72.5622 23.9774 72.3598 24.1995 72.2209C24.4218 72.0765 24.6796 72.005 24.9729 72.005C25.244 72.005 25.4862 72.0724 25.6996 72.2074C25.9174 72.3376 26.0595 72.515 26.1262 72.7403H26.0529L26.1329 72.0724H27.0996C27.0862 72.2208 27.0729 72.3713 27.0596 72.5244C27.0507 72.6728 27.0462 72.8185 27.0462 72.9629V75.4927H26.0462L26.0396 74.8518H26.1196C26.0484 75.0677 25.9062 75.2404 25.6929 75.3712C25.4796 75.5014 25.2395 75.5669 24.9729 75.5669ZM25.2795 74.7978C25.5107 74.7978 25.6973 74.7142 25.8396 74.5482C25.9817 74.3816 26.0529 74.1253 26.0529 73.7792C26.0529 73.4324 25.9817 73.1788 25.8396 73.0169C25.6973 72.855 25.5107 72.774 25.2795 72.774C25.0484 72.774 24.8618 72.855 24.7196 73.0169C24.5774 73.1788 24.5062 73.4324 24.5062 73.7792C24.5062 74.1253 24.5751 74.3816 24.7129 74.5482C24.8551 74.7142 25.044 74.7978 25.2795 74.7978ZM29.4517 75.5669C29.0117 75.5669 28.6807 75.4562 28.4584 75.2363C28.2362 75.011 28.1251 74.6764 28.1251 74.2312V72.8347H27.4851V72.0724H28.1251V71.2359L29.1318 70.9863V72.0724H29.9984V72.8347H29.1318V74.1772C29.1318 74.3931 29.1762 74.5415 29.2651 74.6224C29.354 74.7034 29.4674 74.7439 29.6051 74.7439C29.6896 74.7439 29.7584 74.7391 29.8118 74.7304C29.8696 74.7169 29.9296 74.6987 29.9918 74.6764V75.4657C29.9074 75.5014 29.8184 75.5264 29.7251 75.5399C29.6318 75.5574 29.5407 75.5669 29.4517 75.5669ZM32.1825 75.5669C31.5958 75.5669 31.138 75.407 30.8092 75.0879C30.4802 74.7682 30.3158 74.3344 30.3158 73.7859C30.3158 73.4304 30.3847 73.1201 30.5225 72.855C30.6647 72.5892 30.8602 72.3828 31.1091 72.2343C31.3625 72.0812 31.658 72.005 31.9958 72.005C32.3292 72.005 32.6069 72.0765 32.8292 72.2209C33.0558 72.3645 33.2247 72.5669 33.3358 72.828C33.4513 73.0843 33.5092 73.3832 33.5092 73.7252V73.9613H31.1425V73.4554H32.7758L32.6625 73.5498C32.6625 73.2665 32.6047 73.0526 32.4892 72.9089C32.378 72.7605 32.2158 72.6863 32.0025 72.6863C31.7669 72.6863 31.5847 72.774 31.4558 72.9494C31.3314 73.1248 31.2691 73.3764 31.2691 73.705V73.8129C31.2691 74.1455 31.3492 74.3931 31.5092 74.555C31.6736 74.7169 31.9092 74.7978 32.2158 74.7978C32.398 74.7978 32.5691 74.7749 32.7291 74.7304C32.8935 74.6805 33.0492 74.6042 33.1958 74.501L33.4758 75.1756C33.3069 75.3011 33.1114 75.3982 32.8892 75.4657C32.6714 75.5332 32.4358 75.5669 32.1825 75.5669ZM35.4745 75.5669C35.1812 75.5669 34.9212 75.4947 34.6945 75.351C34.4723 75.2066 34.2967 75.0022 34.1678 74.7371C34.0434 74.4713 33.9812 74.1522 33.9812 73.7792C33.9812 73.4102 34.0434 73.0931 34.1678 72.828C34.2923 72.5622 34.4678 72.3598 34.6945 72.2209C34.9212 72.0765 35.1812 72.005 35.4745 72.005C35.7411 72.005 35.9789 72.0697 36.1878 72.2006C36.4011 72.3261 36.5434 72.4974 36.6145 72.7133H36.5278V70.5276H37.5345V75.4927H36.5412V74.8248H36.6278C36.5567 75.0495 36.4145 75.2296 36.2011 75.3645C35.9878 75.4994 35.7456 75.5669 35.4745 75.5669ZM35.7745 74.7978C36.0056 74.7978 36.1923 74.7142 36.3345 74.5482C36.4767 74.3816 36.5478 74.1253 36.5478 73.7792C36.5478 73.4324 36.4767 73.1788 36.3345 73.0169C36.1923 72.855 36.0056 72.774 35.7745 72.774C35.5434 72.774 35.3545 72.855 35.2078 73.0169C35.0656 73.1788 34.9945 73.4324 34.9945 73.7792C34.9945 74.1253 35.0656 74.3816 35.2078 74.5482C35.3545 74.7142 35.5434 74.7978 35.7745 74.7978ZM40.3082 75.4927V70.7367H41.3482V72.8078H41.3615L43.2882 70.7367H44.5215L42.1549 73.226L42.1616 72.7943L44.6682 75.4927H43.3949L41.3615 73.3205H41.3482V75.4927H40.3082ZM44.8054 75.4927V72.9629C44.8054 72.8185 44.8009 72.6728 44.792 72.5244C44.7831 72.3713 44.7698 72.2208 44.752 72.0724H45.7187L45.792 72.7066H45.712C45.8232 72.4812 45.981 72.3085 46.1854 72.1871C46.3898 72.0657 46.6276 72.005 46.8987 72.005C47.2943 72.005 47.5898 72.1217 47.7854 72.3558C47.9854 72.5851 48.0854 72.9427 48.0854 73.4284V75.4927H47.0787V73.4756C47.0787 73.228 47.0343 73.0526 46.9454 72.9494C46.8565 72.8455 46.7232 72.7943 46.5454 72.7943C46.3232 72.7943 46.1454 72.8658 46.012 73.0101C45.8787 73.1491 45.812 73.338 45.812 73.5768V75.4927H44.8054ZM50.4939 75.5669C50.1339 75.5669 49.8206 75.4947 49.5539 75.351C49.2917 75.2026 49.0873 74.9955 48.9406 74.7304C48.7984 74.4646 48.7273 74.1475 48.7273 73.7792C48.7273 73.4149 48.7984 73.0999 48.9406 72.8347C49.0873 72.5689 49.2917 72.3645 49.5539 72.2209C49.8206 72.0765 50.1339 72.005 50.4939 72.005C50.854 72.005 51.1673 72.0765 51.434 72.2209C51.7006 72.3645 51.905 72.5689 52.0473 72.8347C52.194 73.0999 52.2673 73.4149 52.2673 73.7792C52.2673 74.1475 52.194 74.4646 52.0473 74.7304C51.905 74.9955 51.7006 75.2026 51.434 75.351C51.1673 75.4947 50.854 75.5669 50.4939 75.5669ZM50.4939 74.7978C50.725 74.7978 50.9073 74.7142 51.0406 74.5482C51.1784 74.3816 51.2473 74.1253 51.2473 73.7792C51.2473 73.4324 51.1784 73.1788 51.0406 73.0169C50.9073 72.855 50.725 72.774 50.4939 72.774C50.2628 72.774 50.0784 72.855 49.9406 73.0169C49.8073 73.1788 49.7406 73.4324 49.7406 73.7792C49.7406 74.1253 49.8073 74.3816 49.9406 74.5482C50.0784 74.7142 50.2628 74.7978 50.4939 74.7978ZM53.7926 75.4927L52.4325 72.0724H53.4659L54.3592 74.5347H54.1859L55.0859 72.0724H55.7526L56.6459 74.5347H56.5059L57.3859 72.0724H58.3592L57.0059 75.4927H56.1392L55.1792 72.9697H55.5859L54.6592 75.4927H53.7926ZM58.7768 75.4927V70.5276H59.7834V75.4927H58.7768ZM62.3062 75.5669C61.7195 75.5669 61.2617 75.407 60.9328 75.0879C60.604 74.7682 60.4395 74.3344 60.4395 73.7859C60.4395 73.4304 60.5084 73.1201 60.6461 72.855C60.7883 72.5892 60.984 72.3828 61.2328 72.2343C61.4862 72.0812 61.7817 72.005 62.1195 72.005C62.4528 72.005 62.7306 72.0765 62.9528 72.2209C63.1795 72.3645 63.3484 72.5669 63.4595 72.828C63.575 73.0843 63.6328 73.3832 63.6328 73.7252V73.9613H61.2662V73.4554H62.8995L62.7862 73.5498C62.7862 73.2665 62.7283 73.0526 62.6128 72.9089C62.5017 72.7605 62.3395 72.6863 62.1262 72.6863C61.8906 72.6863 61.7084 72.774 61.5795 72.9494C61.455 73.1248 61.3928 73.3764 61.3928 73.705V73.8129C61.3928 74.1455 61.4728 74.3931 61.6328 74.555C61.7973 74.7169 62.0328 74.7978 62.3395 74.7978C62.5217 74.7978 62.6928 74.7749 62.8528 74.7304C63.0173 74.6805 63.1728 74.6042 63.3195 74.501L63.5995 75.1756C63.4306 75.3011 63.235 75.3982 63.0128 75.4657C62.795 75.5332 62.5595 75.5669 62.3062 75.5669ZM65.5982 75.5669C65.3049 75.5669 65.0449 75.4947 64.8182 75.351C64.596 75.2066 64.4204 75.0022 64.2916 74.7371C64.1671 74.4713 64.1049 74.1522 64.1049 73.7792C64.1049 73.4102 64.1671 73.0931 64.2916 72.828C64.416 72.5622 64.5916 72.3598 64.8182 72.2209C65.0449 72.0765 65.3049 72.005 65.5982 72.005C65.8649 72.005 66.1026 72.0697 66.3116 72.2006C66.5249 72.3261 66.6671 72.4974 66.7381 72.7133H66.6516V70.5276H67.6581V75.4927H66.6649V74.8248H66.7514C66.6801 75.0495 66.5382 75.2296 66.3249 75.3645C66.1115 75.4994 65.8693 75.5669 65.5982 75.5669ZM65.8982 74.7978C66.1293 74.7978 66.316 74.7142 66.4582 74.5482C66.6004 74.3816 66.6714 74.1253 66.6714 73.7792C66.6714 73.4324 66.6004 73.1788 66.4582 73.0169C66.316 72.855 66.1293 72.774 65.8982 72.774C65.6671 72.774 65.4782 72.855 65.3316 73.0169C65.1893 73.1788 65.1182 73.4324 65.1182 73.7792C65.1182 74.1253 65.1893 74.3816 65.3316 74.5482C65.4782 74.7142 65.6671 74.7978 65.8982 74.7978ZM70.0908 77.0038C69.7661 77.0038 69.4774 76.9701 69.2241 76.9026C68.9707 76.8392 68.7441 76.7427 68.5441 76.6125L68.7374 75.8839C68.8614 75.9649 68.9927 76.0297 69.1307 76.0796C69.2728 76.1335 69.4174 76.1713 69.5641 76.1943C69.7148 76.2212 69.8641 76.2347 70.0108 76.2347C70.3081 76.2347 70.5308 76.1626 70.6774 76.0189C70.8241 75.8745 70.8974 75.6701 70.8974 75.405V74.6966H70.9641C70.8927 74.9125 70.7508 75.0852 70.5374 75.2161C70.3241 75.3463 70.0841 75.4117 69.8174 75.4117C69.5147 75.4117 69.2507 75.3416 69.0241 75.2026C68.8014 75.063 68.6281 74.8653 68.5041 74.6089C68.3794 74.3526 68.3174 74.051 68.3174 73.705C68.3174 73.3582 68.3794 73.0574 68.5041 72.801C68.6281 72.5447 68.8014 72.349 69.0241 72.2141C69.2507 72.0745 69.5147 72.005 69.8174 72.005C70.0881 72.005 70.3261 72.0697 70.5308 72.2006C70.7394 72.3261 70.8794 72.4947 70.9508 72.7066L70.8974 72.6796L70.9641 72.0724H71.9374C71.9194 72.2208 71.9061 72.3713 71.8974 72.5244C71.8881 72.6728 71.8841 72.8185 71.8841 72.9629V75.2903C71.8841 75.8435 71.7308 76.2658 71.4241 76.5585C71.1174 76.8554 70.6728 77.0038 70.0908 77.0038ZM70.1174 74.6427C70.3528 74.6427 70.5394 74.5617 70.6774 74.3998C70.8148 74.2379 70.8841 74.0058 70.8841 73.705C70.8841 73.4034 70.8148 73.1741 70.6774 73.0169C70.5394 72.855 70.3528 72.774 70.1174 72.774C69.8728 72.774 69.6794 72.855 69.5374 73.0169C69.3994 73.1741 69.3307 73.4034 69.3307 73.705C69.3307 74.0058 69.3994 74.2379 69.5374 74.3998C69.6794 74.5617 69.8728 74.6427 70.1174 74.6427ZM74.4028 75.5669C73.8161 75.5669 73.3581 75.407 73.0294 75.0879C72.7001 74.7682 72.5361 74.3344 72.5361 73.7859C72.5361 73.4304 72.6047 73.1201 72.7427 72.855C72.8848 72.5892 73.0801 72.3828 73.3294 72.2343C73.5827 72.0812 73.8781 72.005 74.2161 72.005C74.5494 72.005 74.8268 72.0765 75.0494 72.2209C75.2761 72.3645 75.4447 72.5669 75.5561 72.828C75.6714 73.0843 75.7294 73.3832 75.7294 73.7252V73.9613H73.3628V73.4554H74.9961L74.8828 73.5498C74.8828 73.2665 74.8247 73.0526 74.7094 72.9089C74.5981 72.7605 74.4361 72.6863 74.2227 72.6863C73.9867 72.6863 73.8048 72.774 73.6761 72.9494C73.5514 73.1248 73.4894 73.3764 73.4894 73.705V73.8129C73.4894 74.1455 73.5694 74.3931 73.7294 74.555C73.8934 74.7169 74.1294 74.7978 74.4361 74.7978C74.6181 74.7978 74.7894 74.7749 74.9494 74.7304C75.1134 74.6805 75.2694 74.6042 75.4161 74.501L75.6961 75.1756C75.5268 75.3011 75.3314 75.3982 75.1094 75.4657C74.8914 75.5332 74.6561 75.5669 74.4028 75.5669ZM78.3161 75.4927V70.7367H80.4827C80.9981 70.7367 81.3961 70.8467 81.6761 71.0673C81.9561 71.2872 82.0961 71.5887 82.0961 71.9712C82.0961 72.2546 82.0114 72.4947 81.8428 72.6931C81.6781 72.8907 81.4514 73.0236 81.1628 73.0911V72.9832C81.5008 73.0412 81.7607 73.172 81.9427 73.3744C82.1294 73.5721 82.2227 73.8305 82.2227 74.1502C82.2227 74.5725 82.0741 74.9031 81.7761 75.1419C81.4827 75.3753 81.0761 75.4927 80.5561 75.4927H78.3161ZM79.3094 74.7101H80.4294C80.6874 74.7101 80.8848 74.6602 81.0228 74.5617C81.1608 74.4626 81.2294 74.3054 81.2294 74.0895C81.2294 73.8689 81.1608 73.7117 81.0228 73.6173C80.8848 73.5181 80.6874 73.4689 80.4294 73.4689H79.3094V74.7101ZM79.3094 72.6931H80.2961C80.5674 72.6931 80.7674 72.6431 80.8961 72.5447C81.0248 72.4455 81.0894 72.2971 81.0894 72.0994C81.0894 71.9058 81.0248 71.7594 80.8961 71.6609C80.7674 71.5618 80.5674 71.5125 80.2961 71.5125H79.3094V72.6931ZM84.2048 75.5669C83.9114 75.5669 83.6534 75.4947 83.4314 75.351C83.2094 75.2066 83.0361 75.0022 82.9114 74.7371C82.7868 74.4713 82.7248 74.1522 82.7248 73.7792C82.7248 73.4102 82.7868 73.0931 82.9114 72.828C83.0361 72.5622 83.2094 72.3598 83.4314 72.2209C83.6534 72.0765 83.9114 72.005 84.2048 72.005C84.4761 72.005 84.7181 72.0724 84.9314 72.2074C85.1494 72.3376 85.2914 72.515 85.3581 72.7403H85.2848L85.3647 72.0724H86.3314C86.3181 72.2208 86.3047 72.3713 86.2914 72.5244C86.2827 72.6728 86.2781 72.8185 86.2781 72.9629V75.4927H85.2781L85.2714 74.8518H85.3514C85.2801 75.0677 85.1381 75.2404 84.9248 75.3712C84.7114 75.5014 84.4714 75.5669 84.2048 75.5669ZM84.5114 74.7978C84.7428 74.7978 84.9294 74.7142 85.0714 74.5482C85.2134 74.3816 85.2848 74.1253 85.2848 73.7792C85.2848 73.4324 85.2134 73.1788 85.0714 73.0169C84.9294 72.855 84.7428 72.774 84.5114 72.774C84.2801 72.774 84.0934 72.855 83.9514 73.0169C83.8094 73.1788 83.7381 73.4324 83.7381 73.7792C83.7381 74.1253 83.8068 74.3816 83.9448 74.5482C84.0868 74.7142 84.2761 74.7978 84.5114 74.7978ZM88.3501 75.5669C88.0481 75.5669 87.7728 75.5332 87.5234 75.4657C87.2747 75.3982 87.0634 75.3038 86.8901 75.1824L87.1501 74.5078C87.3234 74.6157 87.5147 74.7007 87.7234 74.7641C87.9367 74.8268 88.1481 74.8585 88.3568 74.8585C88.5527 74.8585 88.6967 74.8268 88.7901 74.7641C88.8834 74.7007 88.9301 74.6157 88.9301 74.5078C88.9301 74.4174 88.8994 74.3479 88.8368 74.2986C88.7794 74.2487 88.6881 74.213 88.5634 74.1907L87.8768 74.0625C87.5881 74.0038 87.3681 73.8959 87.2168 73.7387C87.0661 73.5809 86.9901 73.3764 86.9901 73.1248C86.9901 72.9042 87.0481 72.7106 87.1634 72.5447C87.2834 72.3733 87.4548 72.2411 87.6768 72.1466C87.8994 72.0522 88.1594 72.005 88.4567 72.005C88.7101 72.005 88.9501 72.036 89.1768 72.0994C89.4034 72.1622 89.5967 72.2586 89.7567 72.3895L89.4834 73.0439C89.3461 72.94 89.1861 72.857 89.0034 72.7943C88.8261 72.7308 88.6548 72.6998 88.4901 72.6998C88.2767 72.6998 88.1234 72.7356 88.0301 72.8078C87.9368 72.8752 87.8901 72.9629 87.8901 73.0709C87.8901 73.1518 87.9167 73.2193 87.9701 73.2732C88.0281 73.3272 88.1148 73.3677 88.2301 73.3947L88.9234 73.5228C89.2214 73.5768 89.4481 73.678 89.6034 73.8264C89.7594 73.9748 89.8368 74.1792 89.8368 74.4403C89.8368 74.6784 89.7748 74.8808 89.6501 75.0474C89.5261 75.2134 89.3501 75.3416 89.1234 75.432C88.9014 75.5217 88.6434 75.5669 88.3501 75.5669ZM92.1628 75.5669C91.5761 75.5669 91.1188 75.407 90.7894 75.0879C90.4608 74.7682 90.2961 74.3344 90.2961 73.7859C90.2961 73.4304 90.3654 73.1201 90.5027 72.855C90.6454 72.5892 90.8408 72.3828 91.0894 72.2343C91.3428 72.0812 91.6388 72.005 91.9761 72.005C92.3094 72.005 92.5874 72.0765 92.8094 72.2209C93.0361 72.3645 93.2054 72.5669 93.3161 72.828C93.4321 73.0843 93.4894 73.3832 93.4894 73.7252V73.9613H91.1228V73.4554H92.7561L92.6428 73.5498C92.6428 73.2665 92.5854 73.0526 92.4694 72.9089C92.3587 72.7605 92.1961 72.6863 91.9827 72.6863C91.7474 72.6863 91.5654 72.774 91.4361 72.9494C91.3121 73.1248 91.2494 73.3764 91.2494 73.705V73.8129C91.2494 74.1455 91.3294 74.3931 91.4894 74.555C91.6541 74.7169 91.8894 74.7978 92.1961 74.7978C92.3788 74.7978 92.5494 74.7749 92.7094 74.7304C92.8741 74.6805 93.0294 74.6042 93.1761 74.501L93.4561 75.1756C93.2874 75.3011 93.0921 75.3982 92.8694 75.4657C92.6521 75.5332 92.4161 75.5669 92.1628 75.5669ZM97.7767 75.5669C97.3987 75.5669 97.0454 75.5197 96.7168 75.4252C96.3874 75.3308 96.1074 75.1999 95.8768 75.0339L96.1834 74.2109C96.3341 74.3141 96.4941 74.4018 96.6634 74.474C96.8321 74.5455 97.0101 74.6022 97.1967 74.6427C97.3834 74.6784 97.5788 74.6966 97.7834 74.6966C98.1034 74.6966 98.3301 74.6467 98.4634 74.5482C98.6007 74.4491 98.6701 74.3229 98.6701 74.1705C98.6701 74.0308 98.6234 73.9249 98.5301 73.8534C98.4408 73.7765 98.2767 73.7117 98.0367 73.6578L97.2501 73.4959C96.8187 73.4055 96.4967 73.253 96.2834 73.0371C96.0701 72.8212 95.9634 72.5332 95.9634 72.1736C95.9634 71.8674 96.0434 71.6022 96.2034 71.3776C96.3634 71.1523 96.5874 70.9769 96.8768 70.8514C97.1701 70.7253 97.5121 70.6625 97.9034 70.6625C98.2367 70.6625 98.5474 70.7097 98.8368 70.8042C99.1254 70.8986 99.3634 71.0335 99.5501 71.2089L99.2434 71.978C99.0608 71.8296 98.8567 71.7189 98.6301 71.6474C98.4074 71.5705 98.1588 71.5328 97.8834 71.5328C97.5941 71.5328 97.3721 71.584 97.2168 71.6879C97.0654 71.7911 96.9901 71.9328 96.9901 72.1129C96.9901 72.2478 97.0367 72.3578 97.1301 72.4435C97.2234 72.5244 97.3874 72.5892 97.6234 72.6391L98.3968 72.7943C98.8368 72.884 99.1634 73.0344 99.3768 73.2462C99.5901 73.4574 99.6967 73.7387 99.6967 74.0895C99.6967 74.3863 99.6168 74.6447 99.4567 74.8653C99.3008 75.0852 99.0788 75.2586 98.7901 75.3847C98.5054 75.5062 98.1674 75.5669 97.7767 75.5669ZM101.998 75.5669C101.638 75.5669 101.325 75.4947 101.058 75.351C100.795 75.2026 100.591 74.9955 100.445 74.7304C100.302 74.4646 100.231 74.1475 100.231 73.7792C100.231 73.4149 100.302 73.0999 100.445 72.8347C100.591 72.5689 100.795 72.3645 101.058 72.2209C101.325 72.0765 101.638 72.005 101.998 72.005C102.358 72.005 102.671 72.0765 102.938 72.2209C103.205 72.3645 103.409 72.5689 103.551 72.8347C103.698 73.0999 103.771 73.4149 103.771 73.7792C103.771 74.1475 103.698 74.4646 103.551 74.7304C103.409 74.9955 103.205 75.2026 102.938 75.351C102.671 75.4947 102.358 75.5669 101.998 75.5669ZM101.998 74.7978C102.229 74.7978 102.411 74.7142 102.545 74.5482C102.682 74.3816 102.751 74.1253 102.751 73.7792C102.751 73.4324 102.682 73.1788 102.545 73.0169C102.411 72.855 102.229 72.774 101.998 72.774C101.767 72.774 101.582 72.855 101.445 73.0169C101.311 73.1788 101.245 73.4324 101.245 73.7792C101.245 74.1253 101.311 74.3816 101.445 74.5482C101.582 74.7142 101.767 74.7978 101.998 74.7978ZM104.642 75.4927V72.8347H104.002V72.0724H104.929L104.642 72.3355V71.8431C104.642 71.3978 104.755 71.0626 104.982 70.8379C105.213 70.6126 105.557 70.5006 106.015 70.5006C106.117 70.5006 106.227 70.5074 106.342 70.5208C106.462 70.5343 106.567 70.5613 106.655 70.6018V71.3843C106.593 71.3614 106.522 71.3459 106.442 71.3371C106.362 71.3236 106.284 71.3169 106.209 71.3169C106.107 71.3169 106.011 71.3344 105.922 71.3708C105.837 71.4066 105.769 71.4673 105.715 71.553C105.667 71.6339 105.642 71.7439 105.642 71.8835V72.2411L105.502 72.0724H106.495V72.8347H105.649V75.4927H104.642ZM108.345 75.5669C107.905 75.5669 107.574 75.4562 107.351 75.2363C107.129 75.011 107.018 74.6764 107.018 74.2312V72.8347H106.378V72.0724H107.018V71.2359L108.025 70.9863V72.0724H108.891V72.8347H108.025V74.1772C108.025 74.3931 108.069 74.5415 108.158 74.6224C108.247 74.7034 108.361 74.7439 108.498 74.7439C108.583 74.7439 108.651 74.7391 108.705 74.7304C108.763 74.7169 108.823 74.6987 108.885 74.6764V75.4657C108.801 75.5014 108.711 75.5264 108.618 75.5399C108.525 75.5574 108.434 75.5669 108.345 75.5669ZM110.42 75.4927L109.06 72.0724H110.093L110.987 74.5347H110.813L111.713 72.0724H112.38L113.273 74.5347H113.133L114.013 72.0724H114.987L113.633 75.4927H112.767L111.807 72.9697H112.213L111.287 75.4927H110.42ZM116.653 75.5669C116.359 75.5669 116.101 75.4947 115.879 75.351C115.657 75.2066 115.483 75.0022 115.359 74.7371C115.235 74.4713 115.173 74.1522 115.173 73.7792C115.173 73.4102 115.235 73.0931 115.359 72.828C115.483 72.5622 115.657 72.3598 115.879 72.2209C116.101 72.0765 116.359 72.005 116.653 72.005C116.923 72.005 117.166 72.0724 117.379 72.2074C117.597 72.3376 117.739 72.515 117.806 72.7403H117.733L117.813 72.0724H118.779C118.766 72.2208 118.753 72.3713 118.739 72.5244C118.73 72.6728 118.726 72.8185 118.726 72.9629V75.4927H117.726L117.719 74.8518H117.799C117.728 75.0677 117.586 75.2404 117.373 75.3712C117.159 75.5014 116.919 75.5669 116.653 75.5669ZM116.959 74.7978C117.19 74.7978 117.377 74.7142 117.519 74.5482C117.661 74.3816 117.733 74.1253 117.733 73.7792C117.733 73.4324 117.661 73.1788 117.519 73.0169C117.377 72.855 117.19 72.774 116.959 72.774C116.728 72.774 116.541 72.855 116.399 73.0169C116.257 73.1788 116.186 73.4324 116.186 73.7792C116.186 74.1253 116.255 74.3816 116.393 74.5482C116.535 74.7142 116.723 74.7978 116.959 74.7978ZM119.545 75.4927V72.9764C119.545 72.828 119.54 72.6769 119.531 72.5244C119.527 72.3713 119.516 72.2208 119.498 72.0724H120.465L120.578 73.0709H120.425C120.469 72.828 120.54 72.6276 120.638 72.4705C120.74 72.3126 120.865 72.1959 121.011 72.1197C121.163 72.0428 121.333 72.005 121.525 72.005C121.609 72.005 121.676 72.009 121.725 72.0185C121.773 72.0225 121.823 72.034 121.871 72.0522L121.865 72.9494C121.771 72.9089 121.691 72.884 121.625 72.8752C121.563 72.8617 121.483 72.855 121.385 72.855C121.198 72.855 121.043 72.8907 120.918 72.9629C120.798 73.0344 120.707 73.1403 120.645 73.28C120.587 73.4189 120.558 73.5876 120.558 73.7859V75.4927H119.545ZM123.934 75.5669C123.347 75.5669 122.889 75.407 122.561 75.0879C122.231 74.7682 122.067 74.3344 122.067 73.7859C122.067 73.4304 122.136 73.1201 122.274 72.855C122.416 72.5892 122.611 72.3828 122.861 72.2343C123.114 72.0812 123.409 72.005 123.747 72.005C124.081 72.005 124.358 72.0765 124.581 72.2209C124.807 72.3645 124.976 72.5669 125.087 72.828C125.203 73.0843 125.261 73.3832 125.261 73.7252V73.9613H122.894V73.4554H124.527L124.414 73.5498C124.414 73.2665 124.356 73.0526 124.241 72.9089C124.129 72.7605 123.967 72.6863 123.754 72.6863C123.518 72.6863 123.336 72.774 123.207 72.9494C123.083 73.1248 123.021 73.3764 123.021 73.705V73.8129C123.021 74.1455 123.101 74.3931 123.261 74.555C123.425 74.7169 123.661 74.7978 123.967 74.7978C124.149 74.7978 124.321 74.7749 124.481 74.7304C124.645 74.6805 124.801 74.6042 124.947 74.501L125.227 75.1756C125.058 75.3011 124.863 75.3982 124.641 75.4657C124.423 75.5332 124.187 75.5669 123.934 75.5669Z" fill="#3A3A3A"/>
<path d="M62.832 2.21191V61.8029" stroke="#0D0D0D" stroke-width="3"/>
<path d="M130.609 62.8148H0" stroke="#0D0D0D" stroke-width="3"/>
<path d="M76.9453 16.5466V10.8395H79.8333C80.468 10.8395 80.956 10.9744 81.2973 11.2442C81.644 11.5087 81.8173 11.8649 81.8173 12.3128C81.8173 12.642 81.7213 12.9254 81.5293 13.1628C81.3426 13.4003 81.084 13.5622 80.7533 13.6485V13.5109C81.148 13.5919 81.452 13.7538 81.6653 13.9966C81.8786 14.2341 81.9853 14.539 81.9853 14.9114C81.9853 15.4079 81.7986 15.8046 81.4253 16.1014C81.052 16.3982 80.548 16.5466 79.9133 16.5466H76.9453ZM78.5933 15.2838H79.6813C79.916 15.2838 80.0866 15.2433 80.1933 15.1623C80.3 15.076 80.3533 14.9492 80.3533 14.7819C80.3533 14.6092 80.3 14.4823 80.1933 14.4014C80.0866 14.3204 79.916 14.28 79.6813 14.28H78.5933V15.2838ZM78.5933 13.0171H79.5053C79.74 13.0171 79.908 12.982 80.0093 12.9119C80.116 12.8363 80.1693 12.7176 80.1693 12.5557C80.1693 12.3938 80.116 12.2777 80.0093 12.2076C79.908 12.1374 79.74 12.1023 79.5053 12.1023H78.5933V13.0171ZM85.2013 16.6438C84.332 16.6438 83.6786 16.4306 83.2413 16.0042C82.804 15.5725 82.5853 14.9249 82.5853 14.0614V10.8395H84.3133V14.0857C84.3133 14.4473 84.3826 14.7225 84.5213 14.9114C84.6653 15.1003 84.892 15.1947 85.2013 15.1947C85.5106 15.1947 85.7346 15.1003 85.8733 14.9114C86.0173 14.7225 86.0893 14.4473 86.0893 14.0857V10.8395H87.7853V14.0614C87.7853 14.9249 87.572 15.5725 87.1453 16.0042C86.724 16.4306 86.076 16.6438 85.2013 16.6438ZM88.672 16.5466V10.8395H90.4V16.5466H88.672ZM91.328 16.5466V10.8395H93.056V15.1057H95.344V16.5466H91.328ZM96.2167 16.5466V12.248H94.5847V10.8395H99.5766V12.248H97.9446V16.5466H96.2167ZM102.523 16.5466V10.8395H105.411C106.046 10.8395 106.534 10.9744 106.875 11.2442C107.222 11.5087 107.395 11.8649 107.395 12.3128C107.395 12.642 107.299 12.9254 107.107 13.1628C106.921 13.4003 106.662 13.5622 106.331 13.6485V13.5109C106.726 13.5919 107.03 13.7538 107.243 13.9966C107.457 14.2341 107.563 14.539 107.563 14.9114C107.563 15.4079 107.377 15.8046 107.003 16.1014C106.63 16.3982 106.126 16.5466 105.491 16.5466H102.523ZM104.171 15.2838H105.259C105.494 15.2838 105.665 15.2433 105.771 15.1623C105.878 15.076 105.931 14.9492 105.931 14.7819C105.931 14.6092 105.878 14.4823 105.771 14.4014C105.665 14.3204 105.494 14.28 105.259 14.28H104.171V15.2838ZM104.171 13.0171H105.083C105.318 13.0171 105.486 12.982 105.587 12.9119C105.694 12.8363 105.747 12.7176 105.747 12.5557C105.747 12.3938 105.694 12.2777 105.587 12.2076C105.486 12.1374 105.318 12.1023 105.083 12.1023H104.171V13.0171ZM109.469 16.5466V13.8023L109.805 14.7414L107.229 10.8395H109.213L110.517 12.9604H110.189L111.501 10.8395H113.429L110.853 14.7414L111.197 13.8023V16.5466H109.469Z" fill="#3A3A3A"/>
<path d="M73.6133 54.6124V48.9053H75.3413V51.01H77.2693V48.9053H78.9973V54.6124H77.2693V52.4348H75.3413V54.6124H73.6133ZM79.9253 54.6124V48.9053H84.1093V50.2329H81.5733V51.0505H83.9173V52.3781H81.5733V53.2848H84.1093V54.6124H79.9253ZM84.7926 54.6124V48.9053H86.5206V53.1714H88.8086V54.6124H84.7926ZM89.4959 54.6124V48.9053H92.4079C93.0746 48.9053 93.576 49.0726 93.912 49.4072C94.248 49.7364 94.416 50.1816 94.416 50.7429C94.416 51.2987 94.248 51.744 93.912 52.0786C93.576 52.4132 93.0746 52.5805 92.4079 52.5805H91.224V54.6124H89.4959ZM91.224 51.2529H92.1759C92.3786 51.2529 92.5279 51.2097 92.6239 51.1233C92.7199 51.0316 92.768 50.9048 92.768 50.7429C92.768 50.581 92.7199 50.4568 92.6239 50.3705C92.5279 50.2787 92.3786 50.2329 92.1759 50.2329H91.224V51.2529ZM94.9039 56.1262C94.8026 56.1262 94.6746 56.1208 94.52 56.11C94.3653 56.0992 94.2106 56.0776 94.0559 56.0453V54.7176C94.1626 54.7392 94.2666 54.7527 94.3679 54.7581C94.4746 54.7689 94.5546 54.7743 94.6079 54.7743C94.8479 54.7743 95.0106 54.7095 95.096 54.58C95.1813 54.4505 95.224 54.24 95.224 53.9486V48.9053H96.952V53.9405C96.952 54.437 96.8853 54.8472 96.7519 55.171C96.6186 55.4948 96.4026 55.7349 96.1039 55.8914C95.8053 56.0479 95.4053 56.1262 94.9039 56.1262ZM100.471 54.7095C99.6013 54.7095 98.9479 54.4964 98.5106 54.07C98.0733 53.6383 97.8546 52.9906 97.8546 52.1272V48.9053H99.5826V52.1514C99.5826 52.513 99.6519 52.7883 99.7906 52.9772C99.9346 53.166 100.161 53.2605 100.471 53.2605C100.78 53.2605 101.004 53.166 101.143 52.9772C101.287 52.7883 101.359 52.513 101.359 52.1514V48.9053H103.055V52.1272C103.055 52.9906 102.841 53.6383 102.415 54.07C101.993 54.4964 101.345 54.7095 100.471 54.7095ZM103.941 54.6124V48.9053H105.669V54.6124H103.941ZM109.549 54.7095C108.92 54.7095 108.373 54.5881 107.909 54.3452C107.451 54.097 107.093 53.7516 106.837 53.3091C106.587 52.8665 106.461 52.3484 106.461 51.7548C106.461 51.1611 106.587 50.6457 106.837 50.2086C107.093 49.766 107.451 49.4233 107.909 49.1805C108.373 48.9322 108.92 48.8081 109.549 48.8081C109.933 48.8081 110.285 48.8594 110.605 48.9619C110.931 49.0591 111.2 49.1994 111.413 49.3829L110.909 50.751C110.669 50.5891 110.453 50.4784 110.261 50.4191C110.069 50.3543 109.853 50.3219 109.613 50.3219C109.181 50.3219 108.848 50.446 108.613 50.6943C108.384 50.9372 108.269 51.2906 108.269 51.7548C108.269 52.2243 108.384 52.5832 108.613 52.8314C108.848 53.0743 109.181 53.1957 109.613 53.1957C109.853 53.1957 110.069 53.166 110.261 53.1067C110.453 53.0419 110.669 52.9286 110.909 52.7667L111.413 54.1348C111.2 54.3183 110.931 54.4613 110.605 54.5638C110.285 54.661 109.933 54.7095 109.549 54.7095ZM112.074 54.6124V48.9053H116.258V50.2329H113.722V51.0505H116.066V52.3781H113.722V53.2848H116.258V54.6124H112.074Z" fill="#3A3A3A"/>
<path d="M94.8531 29.4397C94.8531 29.4397 97.0058 32.2981 97.0058 33.5373C97.0058 34.7566 96.0184 35.756 94.8138 35.756C93.6084 35.756 92.6211 34.7566 92.6211 33.5373C92.6211 32.2981 94.8531 29.4397 94.8531 29.4397Z" fill="#3A3A3A"/>
<path d="M94.813 22.344C89.223 22.344 84.6797 26.9413 84.6797 32.598C84.6797 38.2546 89.223 42.8519 94.813 42.8519C100.404 42.8519 104.946 38.2546 104.946 32.598C104.946 26.9413 100.404 22.344 94.813 22.344ZM98.2304 24.2229C100.423 25.1424 102.181 26.9213 103.09 29.14L101.036 29.9995C100.344 28.3205 99.0404 26.9813 97.381 26.3017L98.2304 24.2229ZM91.3963 24.2229L92.2457 26.3017C90.5863 27.0013 89.263 28.3205 88.591 29.9995L86.537 29.14C87.4457 26.9013 89.1837 25.1424 91.3963 24.2229ZM91.3963 40.973C89.2037 40.0536 87.4457 38.2746 86.537 36.0559L88.591 35.1965C89.2824 36.8755 90.5863 38.2146 92.2457 38.8943L91.3963 40.973ZM89.263 32.598C89.263 29.4998 91.7517 26.9813 94.813 26.9813C97.875 26.9813 100.364 29.4998 100.364 32.598C100.364 35.6961 97.875 38.2146 94.813 38.2146C91.7517 38.2146 89.263 35.6961 89.263 32.598ZM98.2304 40.973L97.381 38.8943C99.0404 38.1947 100.364 36.8755 101.036 35.1965L103.09 36.0559C102.181 38.2946 100.443 40.0536 98.2304 40.973Z" fill="#3A3A3A"/>
</g>
<defs>
<clipPath id="clip0_1_2599">
<rect width="132" height="85" fill="white" transform="translate(0 0.414062)"/>
</clipPath>
</defs>
</svg>
